# xmcd
# 
# Track frame offsets:
#     150
#     10502
#     33452
#     43557
#     57412
#     73662
#     121670
# 
# Disc length: 2048
# 
# Revision: 4
# Processed by: cddbd v1.5.2PL0 Copyright (c) Steve Scherf et al.
# Submitted via: fre:ac v1.0.31
# 
DISCID=5207fe07
DTITLE=Traffic - Last Exit
DYEAR=1969
DGENRE=Rock/Pop
TTITLE0=Just For You
TTITLE1=Shanghai Noodle Factory
TTITLE2=Something's Got A Hold Of My Toe
TTITLE3=Withering Tree
TTITLE4=Medicated Goo
TTITLE5=Feelin' Good [Live]
TTITLE6=Blind Man [Live]
EXTD=
EXTT0=
EXTT1=
EXTT2=
EXTT3=
EXTT4=
EXTT5=
EXTT6=
PLAYORDER=
